# xmcd
#
# Track frame offsets:
#	150
#	10350
#	20863
#	31865
#	43335
#	55115
#	64933
#	75510
#	85938
#	97793
#	109493
#	121495
#	135463
#	147895
#	160303
#	173313
#
# Disc length: 2461 seconds
#
# Revision: 4
# Processed by: cddbd v1.5.1PL0 Copyright (c) Steve Scherf et al.
# Submitted via: dBpowerAMP V4.0
#
DISCID=ce099b10
DTITLE=Drifters, The - The Very Best Of The Drifters
DYEAR=1993
DGENRE=blues
TTITLE0=There Goes My Baby
TTITLE1=(If You Cry) True Love, True Love
TTITLE2=Dance With Me
TTITLE3=This Magic Moment
TTITLE4=Save The Last Dance For Me
TTITLE5=I Count The Tears
TTITLE6=Some Kind Of Wonderful
TTITLE7=Please Stay
TTITLE8=Sweets For My Sweet
TTITLE9=When My Little Girl Is Smiling
TTITLE10=Up On The Roof
TTITLE11=On Broadway
TTITLE12=I'll Take You Home
TTITLE13=Under The Boardwalk
TTITLE14=I've Got Sand In My Shoes
TTITLE15=Saturday Night At The Movies
EXTD=
EXTT0=
EXTT1=
EXTT2=
EXTT3=
EXTT4=
EXTT5=
EXTT6=
EXTT7=
EXTT8=
EXTT9=
EXTT10=
EXTT11=
EXTT12=
EXTT13=
EXTT14=
EXTT15=
PLAYORDER=
